<svg width="97.047852" height="51.313721" viewBox="0 0 97.0479 51.3137" fill="none" xmlns="http://www.w3.org/2000/svg" xmlns:xlink="http://www.w3.org/1999/xlink">
	<desc>
			Created with Pixso.
	</desc>
	<defs/>
	<path id="Fill 1" d="M36.09 0.25C35.54 0.25 35.09 0.69 35.09 1.25L35.09 5.52C35.09 6.07 35.54 6.52 36.09 6.52L72.42 6.52C82.54 6.52 90.5 14.32 90.5 24.41L90.5 24.41C90.5 24.7 90.73 24.93 91.01 24.93L96.28 24.93C96.56 24.93 96.79 24.7 96.79 24.41L96.79 24.41C96.79 10.92 85.95 0.25 72.42 0.25L36.09 0.25Z" fill="#6B7B84" fill-opacity="1.000000" fill-rule="evenodd"/>
	<path id="Fill 1" d="M35.09 5.52C35.09 6.07 35.54 6.52 36.09 6.52L72.42 6.52C82.54 6.52 90.5 14.32 90.5 24.41C90.5 24.7 90.73 24.93 91.01 24.93L96.28 24.93C96.56 24.93 96.79 24.7 96.79 24.41C96.79 10.92 85.95 0.25 72.42 0.25L36.09 0.25C35.54 0.25 35.09 0.69 35.09 1.25L35.09 5.52Z" stroke="#80949F" stroke-opacity="1.000000" stroke-width="0.500000"/>
	<path id="Fill 3" d="M6.63 25.36L6.63 25.36C6.63 25.12 6.43 24.93 6.19 24.93L0.68 24.93C0.44 24.93 0.25 25.12 0.25 25.36L0.25 25.36C0.25 39.01 10.47 50.28 23.69 51.02L66.03 51.06C66.58 51.06 67.03 50.61 67.03 50.06L67.03 45.48C67.03 44.93 66.58 44.48 66.03 44.48L25.15 44.48C14.91 44.45 6.63 35.94 6.63 25.36Z" fill="#6B7B84" fill-opacity="1.000000" fill-rule="evenodd"/>
	<path id="Fill 3" d="M0.68 24.93C0.44 24.93 0.25 25.12 0.25 25.36C0.25 39.01 10.47 50.28 23.69 51.02L66.03 51.06C66.58 51.06 67.03 50.61 67.03 50.06L67.03 45.48C67.03 44.93 66.58 44.48 66.03 44.48L25.15 44.48C14.91 44.45 6.63 35.94 6.63 25.36C6.63 25.12 6.43 24.93 6.19 24.93L0.68 24.93Z" stroke="#80949F" stroke-opacity="1.000000" stroke-width="0.500000"/>
	<path id="Fill 5" d="M27.66 39.45C30.4 39.45 32.68 38.91 34.93 37.82L35.09 37.67L35.09 29.84L34.25 30.92C32.62 32.69 30.44 33.67 27.98 33.67C23.39 33.67 18.78 30.7 18.78 25.03C18.78 20.74 21.96 16.18 27.82 16.18C28.99 16.18 31.83 16.46 34.24 19.02L35.09 20.06L35.09 12.27L34.94 12.12C32.64 10.97 30.3 10.41 27.63 10.41C23.07 10.41 19.5 11.61 16.66 14.08C14.86 15.63 11.86 19.1 11.86 24.94C11.86 29.27 13.4 32.64 16.69 35.57C19.74 38.25 23.14 39.45 27.66 39.45Z" fill="#6B7B84" fill-opacity="1.000000" fill-rule="evenodd"/>
	<path id="Fill 5" d="M34.93 37.82L35.09 37.67L35.09 29.84L34.25 30.92C32.62 32.69 30.44 33.67 27.98 33.67C23.39 33.67 18.78 30.7 18.78 25.03C18.78 20.74 21.96 16.18 27.82 16.18C28.99 16.18 31.83 16.46 34.24 19.02L35.09 20.06L35.09 12.27L34.94 12.12C32.64 10.97 30.3 10.41 27.63 10.41C23.07 10.41 19.5 11.61 16.66 14.08C14.86 15.63 11.86 19.1 11.86 24.94C11.86 29.27 13.4 32.64 16.69 35.57C19.74 38.25 23.14 39.45 27.66 39.45C30.4 39.45 32.68 38.91 34.93 37.82Z" stroke="#80949F" stroke-opacity="1.000000" stroke-width="0.500000"/>
	<mask id="mask_0_727" fill="white">
		<path id="Fill 6" d="M58.0181 26.7874C56.2617 28.5432 53.7324 29.4753 50.501 29.4753L47.5605 29.4753L47.5605 39.45L40.9019 39.45L40.9019 10.4128L49.6562 10.4128C52.938 10.4128 55.2646 10.8904 57.4453 12.801C60.1055 15.1641 60.502 18.4277 60.502 20.1011C60.502 21.6648 60.1787 24.6311 58.0181 26.7874ZM47.4351 16.9463L48.7993 16.9463C50.0508 16.9463 51.4771 17.0146 52.5566 17.7505C53.084 18.127 53.9683 18.9988 53.9683 20.582C53.9683 21.752 53.4512 22.8013 52.5972 23.4558C51.5581 24.2102 50.3325 24.2075 49.3164 24.2053C49.2617 24.2051 49.208 24.2051 49.1548 24.2051L47.4351 24.2051L47.4351 16.9463Z" clip-rule="evenodd" fill="" fill-opacity="1.000000" fill-rule="evenodd"/>
	</mask>
	<path id="Fill 6" d="M58.0181 26.7874C56.2617 28.5432 53.7324 29.4753 50.501 29.4753L47.5605 29.4753L47.5605 39.45L40.9019 39.45L40.9019 10.4128L49.6562 10.4128C52.938 10.4128 55.2646 10.8904 57.4453 12.801C60.1055 15.1641 60.502 18.4277 60.502 20.1011C60.502 21.6648 60.1787 24.6311 58.0181 26.7874ZM47.4351 16.9463L48.7993 16.9463C50.0508 16.9463 51.4771 17.0146 52.5566 17.7505C53.084 18.127 53.9683 18.9988 53.9683 20.582C53.9683 21.752 53.4512 22.8013 52.5972 23.4558C51.5581 24.2102 50.3325 24.2075 49.3164 24.2053C49.2617 24.2051 49.208 24.2051 49.1548 24.2051L47.4351 24.2051L47.4351 16.9463Z" clip-rule="evenodd" fill="#6B7B84" fill-opacity="1.000000" fill-rule="evenodd" mask="url(#mask_0_727)"/>
	<path id="Fill 6" d="M58.1948 26.9641Q56.8301 28.3286 54.8975 29.0249Q52.9536 29.7253 50.501 29.7253L47.5605 29.7253L47.5605 29.4753L47.8105 29.4753L47.8105 39.7L40.6519 39.7L40.6519 10.1628L49.6562 10.1628Q50.9653 10.1628 51.9771 10.2686Q53.1011 10.3862 54.0317 10.6499Q55.0225 10.9304 55.8892 11.4021Q56.7832 11.8887 57.6099 12.613Q59.4209 14.2214 60.2085 16.6321Q60.5098 17.5535 60.646 18.553Q60.752 19.3301 60.752 20.1011Q60.752 21.7734 60.3105 23.2917Q59.6709 25.4912 58.1948 26.9644L58.1948 26.9641ZM57.8418 26.6104Q59.2266 25.2283 59.8301 23.1521Q60.252 21.7021 60.252 20.1011Q60.252 19.364 60.1504 18.6206Q60.0205 17.6658 59.7334 16.7874Q58.9873 14.5054 57.2803 12.989Q56.4956 12.3015 55.6504 11.8413Q54.8325 11.3962 53.8955 11.1309Q53.0059 10.8789 51.9253 10.7659Q50.939 10.6628 49.6562 10.6628L40.9019 10.6628L40.9019 10.4128L41.1519 10.4128L41.1519 39.45L40.9019 39.45L40.9019 39.2L47.5605 39.2L47.5605 39.45L47.3105 39.45L47.3105 29.2253L50.501 29.2253Q52.8662 29.2253 54.728 28.5547Q56.5557 27.896 57.8413 26.6106L57.8418 26.6104ZM47.4351 16.6963L48.7993 16.6963Q49.3652 16.6963 49.7764 16.7188Q50.3276 16.749 50.7842 16.8259Q51.9263 17.0181 52.6978 17.5439Q53.2925 17.9688 53.6729 18.582Q54.2183 19.4622 54.2183 20.582Q54.2183 21.5103 53.8281 22.3206Q53.4419 23.1233 52.7495 23.6543L52.7466 23.6562L52.7441 23.6582Q52.0088 24.1919 50.9893 24.3608Q50.5996 24.4255 50.1221 24.4451Q49.8423 24.4565 49.3159 24.4553L49.1543 24.4551L47.1851 24.4551L47.1851 16.6963L47.4351 16.6963ZM47.4351 17.1963L47.4351 16.9463L47.6851 16.9463L47.6851 24.2051L47.4351 24.2051L47.4351 23.9551L49.1553 23.9551L49.3169 23.9553Q49.833 23.9565 50.1016 23.9453Q50.5483 23.927 50.9072 23.8677Q51.8105 23.718 52.4502 23.2534L52.5972 23.4558L52.4453 23.2573Q53.043 22.7991 53.3779 22.1038Q53.7183 21.3962 53.7183 20.582Q53.7183 19.6045 53.2476 18.8455Q52.9204 18.3174 52.416 17.957Q51.7354 17.4929 50.7012 17.3188Q49.9722 17.1963 48.7993 17.1963L47.4351 17.1963Z" fill="#80949F" fill-opacity="1.000000" fill-rule="nonzero"/>
	<path id="Fill 7" d="M80.47 24.12C79.02 22.84 77 22.1 74.71 21.32C73.08 20.76 72.18 20.44 71.58 19.89C71.1 19.49 70.89 19.06 70.89 18.48C70.89 17.21 71.75 15.86 74.16 15.86C75.8 15.86 77.17 16.56 78.24 17.95L78.66 18.49L82.18 14.02L81.86 13.7C79.71 11.54 76.87 10.41 73.66 10.41C67.18 10.41 64.28 14.62 64.28 18.8C64.28 21.04 65.08 22.85 66.66 24.17C68.06 25.38 69.78 26.05 71.42 26.6L71.61 26.66C73.07 27.15 74.58 27.65 75.49 28.46C76.11 29.03 76.39 29.66 76.39 30.49C76.39 32.39 74.9 33.67 72.67 33.67C70.91 33.67 68.59 32.8 67.37 30.38L67.05 29.75L62.67 33.79L62.93 34.16C64.33 36.13 67.47 39.45 72.88 39.45C78.84 39.45 83 35.61 83 30.13C83 26.99 81.62 25.13 80.47 24.12Z" fill="#6B7B84" fill-opacity="1.000000" fill-rule="evenodd"/>
	<path id="Fill 7" d="M74.71 21.32C73.08 20.76 72.18 20.44 71.58 19.89C71.1 19.49 70.89 19.06 70.89 18.48C70.89 17.21 71.75 15.86 74.16 15.86C75.8 15.86 77.17 16.56 78.24 17.95L78.66 18.49L82.18 14.02L81.86 13.7C79.71 11.54 76.87 10.41 73.66 10.41C67.18 10.41 64.28 14.62 64.28 18.8C64.28 21.04 65.08 22.85 66.66 24.17C68.06 25.38 69.78 26.05 71.42 26.6L71.61 26.66C73.07 27.15 74.58 27.65 75.49 28.46C76.11 29.03 76.39 29.66 76.39 30.49C76.39 32.39 74.9 33.67 72.67 33.67C70.91 33.67 68.59 32.8 67.37 30.38L67.05 29.75L62.67 33.79L62.93 34.16C64.33 36.13 67.47 39.45 72.88 39.45C78.84 39.45 83 35.61 83 30.13C83 26.99 81.62 25.13 80.47 24.12C79.02 22.84 77 22.1 74.71 21.32Z" stroke="#80949F" stroke-opacity="1.000000" stroke-width="0.500000"/>
</svg>
