<svg width="20.000000" height="20.000000" viewBox="0 0 20 20" fill="none" xmlns="http://www.w3.org/2000/svg" xmlns:xlink="http://www.w3.org/1999/xlink">
	<desc>
			Created with Pixso.
	</desc>
	<defs/>
	<path id="icon" d="M2 0L18 0C19.1001 0 20 0.899902 20 2L20 13C20 14.1001 19.1001 15 18 15L4 15L0 20L0.0100098 2C0.0100098 0.899902 0.899902 0 2 0ZM5 6L15 6C15.55 6 16 5.55005 16 5C16 4.44995 15.55 4 15 4L5 4C4.44995 4 4 4.44995 4 5C4 5.55005 4.44995 6 5 6ZM11 11L5 11C4.44995 11 4 10.55 4 10C4 9.44995 4.44995 9 5 9L11 9C11.55 9 12 9.44995 12 10C12 10.55 11.55 11 11 11Z" clip-rule="evenodd" fill="#FFFFFF" fill-opacity="1.000000" fill-rule="evenodd"/>
</svg>
