<svg width="40.000000" height="40.000000" viewBox="0 0 40 40" fill="none" xmlns="http://www.w3.org/2000/svg" xmlns:xlink="http://www.w3.org/1999/xlink">
	<desc>
			Created with Pixso.
	</desc>
	<defs/>
	<rect id="back" rx="20.000000" width="40.000000" height="40.000000" fill="#FF3E79" fill-opacity="1.000000"/>
	<path id="icon" d="M28 12L12 12C11.4478 12 11 12.4478 11 13C11 13.5522 11.4478 14 12 14L28 14C28.5522 14 29 13.5522 29 13C29 12.4478 28.5522 12 28 12ZM12 19L20 19C20.5522 19 21 19.4478 21 20C21 20.5522 20.5522 21 20 21L12 21C11.4478 21 11 20.5522 11 20C11 19.4478 11.4478 19 12 19ZM24 26L12 26C11.4478 26 11 26.4478 11 27C11 27.5522 11.4478 28 12 28L24 28C24.5522 28 25 27.5522 25 27C25 26.4478 24.5522 26 24 26Z" clip-rule="evenodd" fill="#FFFFFF" fill-opacity="1.000000" fill-rule="evenodd"/>
</svg>
