<svg width="18.000000" height="16.000000" viewBox="0 0 18 16" fill="none" xmlns="http://www.w3.org/2000/svg" xmlns:xlink="http://www.w3.org/1999/xlink">
	<desc>
			Created with Pixso.
	</desc>
	<defs/>
	<path id="icon" d="M17 0L1 0C0.447754 0 0 0.447754 0 1C0 1.55225 0.447754 2 1 2L17 2C17.5522 2 18 1.55225 18 1C18 0.447754 17.5522 0 17 0ZM1 7L9 7C9.55225 7 10 7.44775 10 8C10 8.55225 9.55225 9 9 9L1 9C0.447754 9 0 8.55225 0 8C0 7.44775 0.447754 7 1 7ZM13 14L1 14C0.447754 14 0 14.4478 0 15C0 15.5522 0.447754 16 1 16L13 16C13.5522 16 14 15.5522 14 15C14 14.4478 13.5522 14 13 14Z" clip-rule="evenodd" fill="#FFFFFF" fill-opacity="1.000000" fill-rule="evenodd"/>
</svg>
