<svg width="40.000000" height="40.000000" viewBox="0 0 40 40" fill="none" xmlns="http://www.w3.org/2000/svg" xmlns:xlink="http://www.w3.org/1999/xlink">
	<desc>
			Created with Pixso.
	</desc>
	<defs/>
	<rect id="back" rx="20.000000" width="40.000000" height="40.000000" fill="#FF3E79" fill-opacity="1.000000"/>
	<path id="icon" d="M13.5 30C13.5 29.1714 12.8284 28.5 12 28.5L12 11C12 10.4478 12.4478 10 13 10L27 10C27.5522 10 28 10.4478 28 11L28 28.5C27.1716 28.5 26.5 29.1714 26.5 30L25.5 30C25.5 29.1714 24.8284 28.5 24 28.5C23.1716 28.5 22.5 29.1714 22.5 30L21.5 30C21.5 29.1714 20.8284 28.5 20 28.5C19.1716 28.5 18.5 29.1714 18.5 30L17.5 30C17.5 29.1714 16.8284 28.5 16 28.5C15.1716 28.5 14.5 29.1714 14.5 30L13.5 30ZM18.3296 22.3826C19.4705 22.5935 20.5535 22.3442 21.4163 21.7883L23.5251 23.8972C23.8992 24.271 24.5127 24.271 24.896 23.8877C25.2698 23.5137 25.2698 22.9004 24.896 22.5264L22.7871 20.4272C23.324 19.574 23.5828 18.5483 23.4006 17.4365C23.1035 15.644 21.656 14.1677 19.8538 13.8801C16.9492 13.4202 14.4951 15.8262 14.8594 18.7114C15.0896 20.5327 16.5273 22.0471 18.3296 22.3826ZM16.7058 18.0586C16.7058 16.7598 17.76 15.7058 19.0588 15.7058C20.3577 15.7058 21.4116 16.7598 21.4116 18.0586C21.4116 19.3574 20.3577 20.4116 19.0588 20.4116C17.76 20.4116 16.7058 19.3574 16.7058 18.0586Z" clip-rule="evenodd" fill="#FFFFFF" fill-opacity="1.000000" fill-rule="evenodd"/>
</svg>
