<svg width="16.000000" height="20.000000" viewBox="0 0 16 20" fill="none" xmlns="http://www.w3.org/2000/svg" xmlns:xlink="http://www.w3.org/1999/xlink">
	<desc>
			Created with Pixso.
	</desc>
	<defs/>
	<path d="M1.5 20C1.5 19.1716 0.828369 18.5 0 18.5L0 1C0 0.447754 0.447754 0 1 0L15 0C15.5522 0 16 0.447754 16 1L16 18.5C15.1716 18.5 14.5 19.1716 14.5 20L13.5 20C13.5 19.1716 12.8284 18.5 12 18.5C11.1716 18.5 10.5 19.1716 10.5 20L9.5 20C9.5 19.1716 8.82837 18.5 8 18.5C7.17163 18.5 6.5 19.1716 6.5 20L5.5 20C5.5 19.1716 4.82837 18.5 4 18.5C3.17163 18.5 2.5 19.1716 2.5 20L1.5 20ZM6.32959 12.3828C7.47046 12.5935 8.55371 12.3445 9.41626 11.7883L11.5254 13.8972C11.8992 14.2712 12.5127 14.2712 12.896 13.8877C13.27 13.5139 13.27 12.9004 12.896 12.5266L10.7871 10.4272C11.324 9.57422 11.5828 8.54834 11.4006 7.43652C11.1035 5.64404 9.65601 4.16772 7.85376 3.88013C4.94922 3.42017 2.49512 5.82617 2.85962 8.71143C3.0896 10.5327 4.52759 12.0471 6.32959 12.3828ZM4.70581 8.05884C4.70581 6.76001 5.76001 5.70581 7.05884 5.70581C8.35767 5.70581 9.41187 6.76001 9.41187 8.05884C9.41187 9.35767 8.35767 10.4116 7.05884 10.4116C5.76001 10.4116 4.70581 9.35767 4.70581 8.05884Z" clip-rule="evenodd" fill="#FFFFFF" fill-opacity="1.000000" fill-rule="evenodd"/>
</svg>
