<svg width="40.000000" height="40.000000" viewBox="0 0 40 40" fill="none" xmlns="http://www.w3.org/2000/svg" xmlns:xlink="http://www.w3.org/1999/xlink">
	<desc>
			Created with Pixso.
	</desc>
	<defs/>
	<rect id="back" rx="20.000000" width="40.000000" height="40.000000" fill="#FF3E79" fill-opacity="1.000000"/>
	<path id="Path" d="M18.25 23.45L18.66 23.04L16.95 21.33L16.54 21.74L16.33 21.53C16 21.16 15.68 20.96 15.35 21C15.11 21 14.9 21.16 14.74 21.41C14.49 21.82 14.61 22.27 14.66 22.55C14.66 22.64 14.7 22.68 14.7 22.76C14.7 22.88 14.7 23.04 14.41 23.09C14 23.21 13.47 23.33 12.94 23.62C12.2 24.03 11.71 24.39 11.43 24.76C9.91 26.72 10 28.4 10 28.48C10 28.6 10.04 28.69 10.12 28.73L11.22 29.87C11.3 29.95 11.39 30 11.47 30C11.47 30 11.51 30 11.59 30C12 30 13.47 29.91 15.19 28.56C15.56 28.28 15.92 27.79 16.33 27.05C16.62 26.56 16.78 26.03 16.86 25.58C16.95 25.29 17.07 25.29 17.19 25.29C17.23 25.29 17.31 25.33 17.39 25.33C17.56 25.37 17.72 25.42 17.93 25.42C18.13 25.42 18.33 25.37 18.54 25.25C18.78 25.09 18.95 24.88 18.99 24.64C19.03 24.31 18.87 23.98 18.5 23.7L18.25 23.45Z" fill="#FFFFFF" fill-opacity="1.000000" fill-rule="nonzero"/>
	<path id="Path" d="M26.88 14.87L28.01 14.32C28.06 14.28 28.14 14.24 28.18 14.19L29.91 11.86C30.03 11.69 30.03 11.43 29.86 11.3L28.69 10.11C28.56 9.99 28.31 9.94 28.14 10.07L25.83 11.81C25.79 11.86 25.74 11.9 25.7 11.98L25.16 13.13L21 17.21L22.76 19L26.88 14.87Z" fill="#FFFFFF" fill-opacity="1.000000" fill-rule="nonzero"/>
	<path id="Path" d="M27.85 23.04C26.86 22 25.43 21.62 24.09 22L17.64 15.17C17.72 14.79 17.76 14.46 17.76 14.09C17.76 13.04 17.36 12 16.61 11.21C15.58 10.09 14.04 9.71 12.62 10.21C12.54 10.25 12.42 10.38 12.38 10.55C12.38 10.67 12.42 10.8 12.5 10.92L14.44 12.96C14.87 13.42 14.87 14.21 14.44 14.67C14 15.13 13.25 15.13 12.81 14.67L10.87 12.63C10.76 12.54 10.64 12.5 10.48 12.54C10.36 12.54 10.24 12.67 10.2 12.79C9.73 14.25 10.08 15.88 11.11 16.96C11.82 17.75 12.85 18.17 13.88 18.17C14.2 18.17 14.55 18.13 14.87 18.04L21.36 24.87C21 26.29 21.4 27.79 22.35 28.83C23.1 29.62 24.05 30 25.08 30C25.51 30 25.91 29.91 26.34 29.79C26.46 29.75 26.58 29.62 26.62 29.5C26.66 29.37 26.62 29.2 26.5 29.12L24.56 27.08C24.37 26.87 24.21 26.54 24.21 26.21C24.21 25.87 24.33 25.58 24.56 25.33C24.8 25.08 25.08 24.96 25.39 24.96C25.71 24.96 25.99 25.08 26.23 25.33L28.16 27.37C28.28 27.45 28.4 27.5 28.52 27.5C28.64 27.45 28.76 27.37 28.8 27.25C28.92 26.83 29 26.37 29 25.91C29 24.83 28.6 23.79 27.85 23.04Z" fill="#FFFFFF" fill-opacity="1.000000" fill-rule="nonzero"/>
</svg>
