<svg width="20.000000" height="20.000000" viewBox="0 0 20 20" fill="none" xmlns="http://www.w3.org/2000/svg" xmlns:xlink="http://www.w3.org/1999/xlink">
	<desc>
			Created with Pixso.
	</desc>
	<defs/>
	<path d="M8.25 13.45L8.66 13.04L6.94 11.33L6.54 11.74L6.33 11.53C6 11.16 5.68 10.96 5.35 11C5.11 11 4.9 11.16 4.74 11.41C4.49 11.82 4.61 12.27 4.66 12.55C4.66 12.64 4.7 12.68 4.7 12.76C4.7 12.88 4.7 13.04 4.41 13.09C4 13.21 3.47 13.33 2.94 13.62C2.2 14.03 1.71 14.39 1.43 14.76C-0.09 16.72 0 18.4 0 18.48C0 18.6 0.04 18.69 0.12 18.73L1.22 19.87C1.3 19.95 1.39 20 1.47 20C1.47 20 1.51 20 1.59 20C2 20 3.47 19.91 5.19 18.56C5.56 18.28 5.92 17.79 6.33 17.05C6.62 16.56 6.78 16.03 6.86 15.58C6.94 15.29 7.07 15.29 7.19 15.29C7.23 15.29 7.31 15.33 7.39 15.33C7.56 15.37 7.72 15.42 7.93 15.42C8.13 15.42 8.33 15.37 8.54 15.25C8.78 15.09 8.95 14.88 8.99 14.64C9.03 14.31 8.87 13.98 8.5 13.7L8.25 13.45Z" fill="#FFFFFF" fill-opacity="1.000000" fill-rule="nonzero"/>
	<path d="M16.88 4.87L18.01 4.32C18.06 4.28 18.14 4.24 18.18 4.19L19.91 1.86C20.03 1.69 20.03 1.43 19.86 1.3L18.69 0.11C18.56 -0.01 18.31 -0.06 18.14 0.07L15.83 1.81C15.79 1.86 15.74 1.9 15.7 1.98L15.16 3.13L11 7.21L12.76 9L16.88 4.87Z" fill="#FFFFFF" fill-opacity="1.000000" fill-rule="nonzero"/>
	<path d="M17.85 13.04C16.86 12 15.43 11.62 14.09 12L7.64 5.17C7.72 4.79 7.76 4.46 7.76 4.09C7.76 3.04 7.36 2 6.61 1.21C5.58 0.09 4.04 -0.29 2.62 0.21C2.54 0.25 2.42 0.38 2.38 0.55C2.38 0.67 2.42 0.8 2.5 0.92L4.44 2.96C4.87 3.42 4.87 4.21 4.44 4.67C4 5.13 3.25 5.13 2.81 4.67L0.87 2.63C0.76 2.54 0.64 2.5 0.48 2.54C0.36 2.54 0.24 2.67 0.2 2.79C-0.27 4.25 0.08 5.88 1.11 6.96C1.82 7.75 2.85 8.17 3.88 8.17C4.2 8.17 4.55 8.13 4.87 8.04L11.36 14.87C11 16.29 11.4 17.79 12.35 18.83C13.1 19.62 14.05 20 15.08 20C15.51 20 15.91 19.91 16.34 19.79C16.46 19.75 16.58 19.62 16.62 19.5C16.66 19.37 16.62 19.2 16.5 19.12L14.56 17.08C14.37 16.87 14.21 16.54 14.21 16.2C14.21 15.87 14.33 15.58 14.56 15.33C14.8 15.08 15.08 14.96 15.39 14.96C15.71 14.96 15.99 15.08 16.23 15.33L18.16 17.37C18.28 17.45 18.4 17.5 18.52 17.5C18.64 17.45 18.76 17.37 18.8 17.25C18.92 16.83 19 16.37 19 15.91C19 14.83 18.6 13.79 17.85 13.04Z" fill="#FFFFFF" fill-opacity="1.000000" fill-rule="nonzero"/>
</svg>
